<?xml version="1.0" standalone="no"?>
<!DOCTYPE svg PUBLIC "-//W3C//DTD SVG 20010904//EN"
 "http://www.w3.org/TR/2001/REC-SVG-20010904/DTD/svg10.dtd">
<svg version="1.0" xmlns="http://www.w3.org/2000/svg"
 width="300.000000pt" height="300.000000pt" viewBox="0 0 300.000000 300.000000"
 preserveAspectRatio="xMidYMid meet">
<metadata>
Created by potrace 1.11, written by Peter Selinger 2001-2013
</metadata>
<g transform="translate(0.000000,300.000000) scale(0.100000,-0.100000)"
fill="#000000" stroke="none">
<path d="M2849 2826 c-2 -2 -36 -7 -74 -10 -39 -4 -80 -8 -92 -10 -12 -3 -54
-8 -94 -11 -40 -4 -80 -8 -88 -10 -9 -2 -45 -6 -81 -10 -36 -4 -78 -9 -95 -11
-16 -2 -55 -6 -85 -9 -30 -3 -70 -8 -88 -11 -18 -2 -54 -6 -80 -9 -26 -3 -65
-7 -87 -10 -22 -2 -62 -7 -90 -10 -27 -3 -66 -8 -85 -10 -19 -3 -62 -8 -95
-11 -33 -3 -67 -8 -76 -9 -9 -2 -52 -6 -95 -10 -43 -4 -81 -9 -84 -10 -3 -2
-39 -6 -80 -10 -41 -4 -77 -9 -80 -10 -3 -2 -42 -6 -86 -10 -44 -3 -88 -8 -99
-10 -11 -2 -32 -4 -47 -4 l-28 -1 5 -312 c2 -172 4 -368 4 -435 l1 -122 33 4
c17 3 57 7 87 10 30 3 66 7 80 10 14 2 52 7 85 10 33 4 71 8 85 10 14 2 48 6
75 9 56 6 147 16 185 21 14 2 57 6 95 10 39 4 79 9 90 11 11 2 49 6 85 9 36 4
72 8 80 10 8 2 44 7 80 10 36 4 76 8 90 10 14 2 56 7 95 10 38 4 76 8 85 10 8
1 44 6 80 9 74 8 134 15 170 21 14 2 52 7 85 10 95 9 127 13 133 20 4 4 8 88
9 188 6 704 7 687 -8 673z"/>
<path d="M2175 1599 c-270 -63 -395 -375 -245 -609 37 -58 72 -90 135 -128
192 -111 451 -36 551 160 27 52 55 166 49 197 -1 9 -6 38 -9 66 -13 96 -97
214 -190 269 -82 48 -199 66 -291 45z"/>
<path d="M1570 1377 c-3 -3 -34 -7 -70 -10 -36 -4 -101 -11 -145 -16 -44 -6
-107 -13 -140 -16 -33 -3 -76 -8 -95 -11 -19 -2 -55 -6 -80 -9 -25 -3 -61 -7
-80 -10 -19 -2 -80 -9 -135 -15 -55 -6 -116 -13 -135 -15 -72 -10 -108 -14
-169 -20 -34 -4 -72 -8 -84 -11 -12 -2 -49 -6 -83 -9 -33 -2 -74 -6 -90 -9
-16 -2 -52 -7 -80 -11 l-50 -6 3 -142 c2 -78 5 -270 7 -427 2 -157 4 -287 5
-289 1 -3 103 6 153 14 13 2 50 6 83 10 33 4 74 8 90 10 58 8 121 15 180 20
33 4 71 8 85 10 47 7 125 16 170 20 45 4 120 12 175 20 17 2 62 7 100 10 39 4
79 9 90 11 11 2 45 6 75 9 30 3 65 7 77 9 12 3 54 7 95 11 40 4 76 10 80 13 4
4 8 198 9 432 3 419 3 425 -17 428 -11 2 -22 1 -24 -1z"/>
</g>
</svg>
